<svg id="LAYER_1" data-name="LAYER 1" xmlns="http://www.w3.org/2000/svg" viewBox="0 0 80.41 80.41"><defs><style>.cls-1{fill:#00953a;}.cls-2{fill:#fff;}</style></defs><circle class="cls-1" cx="40.21" cy="40.21" r="40.21"/><path class="cls-2" d="M667.37,269.11a20.41,20.41,0,1,0-25.44,19.79h0l9.21,2.34h0l11,2.78L658,286.29A20.39,20.39,0,0,0,667.37,269.11Zm-32.77,0A12.36,12.36,0,1,1,647,281.47,12.37,12.37,0,0,1,634.6,269.11Z" transform="translate(-598.84 -229.26)"/><path class="cls-2" d="M614.62,259.83v26.88a20.27,20.27,0,0,0,5.31,2.19h0l2.25.57V259.83Z" transform="translate(-598.84 -229.26)"/><path class="cls-2" d="M618.31,256.93a4.12,4.12,0,0,0,4.15-4.09,4.15,4.15,0,0,0-8.3,0A4.12,4.12,0,0,0,618.31,256.93Z" transform="translate(-598.84 -229.26)"/><path class="cls-2" d="M641.41,269.21a1.69,1.69,0,0,0,1.22-1.77c0-1.41-1.08-2.25-2.89-2.25-2,0-3.12,1-3.17,2.83v.14h.8V268c0-1.74,1.29-2.11,2.38-2.11,1.39,0,2.1.54,2.1,1.61,0,1.27-1.15,1.37-2.65,1.37h-.14v.73h.14c1.07,0,2.85,0,2.85,1.7,0,1.52-1.27,1.83-2.34,1.83-1.71,0-2.55-.74-2.55-2.26v-.14h-.79v.14c0,2,1.16,3,3.28,3s3.19-.91,3.19-2.45A2.13,2.13,0,0,0,641.41,269.21Zm5.65-1.17a2.9,2.9,0,0,0-2.55,1.25c.07-1.82.52-3.38,2.59-3.38.46,0,2,.11,2.12,1.53v.12H650v-.14c-.09-1.36-1.19-2.23-2.82-2.23-3.07,0-3.49,2.35-3.49,4.65,0,2.67,1.1,4,3.28,4a2.93,2.93,0,0,0,3.17-2.94A2.84,2.84,0,0,0,647.06,268Zm0,5.11a2.17,2.17,0,0,1-2.43-2.22c0-1.33.94-2.15,2.46-2.15a2.06,2.06,0,0,1,2.28,2.15A2.14,2.14,0,0,1,647.07,273.14Zm7.2-8c-2.21,0-3.48,1.58-3.48,4.34s1.27,4.35,3.48,4.35,3.48-1.54,3.48-4.35S656.52,265.18,654.28,265.18Zm0,8c-2.22,0-2.68-2-2.68-3.62,0-1.35.35-3.61,2.68-3.61,1.78,0,2.68,1.22,2.68,3.61S656.06,273.14,654.28,273.14Z" transform="translate(-598.84 -229.26)"/></svg>